<svg aria-hidden="true" style="width:0;height:0;position:absolute;overflow:hidden" xmlns="http://www.w3.org/2000/svg"><defs><symbol id="icon-shopping-cart" viewBox="0 0 32 32"><path d="M.72.26C.323.443.16.753.16 1.333c0 .547.152.864.507 1.059.14.077.467.092 2.587.115l2.427.027.579 2.88 1.739 8.672c1.123 5.611 1.167 5.807 1.377 6.24a3.889 3.889 0 0 0 2.47 2.07l.027.006c.4.103.62.105 7.515.105s7.115-.003 7.515-.105a3.915 3.915 0 0 0 2.766-2.828l.006-.027c.067-.288 1.657-8.601 2.137-11.173.14-.745.016-1.124-.453-1.387l-.237-.133-22.133-.053-.593-2.945c-.325-1.62-.621-3.015-.657-3.1a1.052 1.052 0 0 0-.541-.509L7.191.244C7.02.172 6.584.161 3.964.163 1.14.164.921.171.723.262zm28.469 8.953c.036.063-1.819 9.719-1.917 9.984-.12.323-.444.659-.78.809l-.279.127H12.56l-.279-.127a1.596 1.596 0 0 1-.776-.799l-.004-.01c-.085-.227-2.008-9.735-2.008-9.929 0-.091.471-.095 9.837-.095 5.409 0 9.847.019 9.859.04zM11.303 25.431c-1.145.299-1.979 1.404-1.967 2.607.013 1.276.984 2.391 2.251 2.585a2.563 2.563 0 0 0 2.284-.752c.432-.432.664-.88.752-1.457A2.66 2.66 0 0 0 12 25.341c-.191 0-.504.041-.697.091zm14.666 0c-1.145.299-1.979 1.404-1.967 2.607.013 1.276.984 2.391 2.251 2.585a2.563 2.563 0 0 0 2.284-.752c.432-.432.664-.88.752-1.457a2.66 2.66 0 0 0-2.623-3.073c-.191 0-.504.041-.697.091z"/></symbol><symbol id="icon-search-3-1" viewBox="0 0 32 32"><path d="M28.947 27.054 24 22.147a11.999 11.999 0 0 0-1.353-16.445 12 12 0 1 0-.5 18.298l4.907 4.907a1.334 1.334 0 0 0 1.894 0 1.336 1.336 0 0 0 0-1.854zm-14.28-3.053a9.33 9.33 0 0 1-8.623-5.762A9.339 9.339 0 0 1 8.067 8.067a9.331 9.331 0 0 1 10.172-2.023 9.336 9.336 0 0 1 5.762 8.623 9.333 9.333 0 0 1-9.334 9.334z"/></symbol><symbol id="icon-chevron-down" viewBox="0 0 32 32"><path stroke-linejoin="round" stroke-linecap="round" stroke-width="3.556" d="m8 12 8 8 8-8"/></symbol><symbol id="icon-x" viewBox="0 0 24 24" fill="none"><path stroke-linecap="round" stroke-linejoin="round" stroke-width="2" d="M18 6 6 18M6 6l12 12"/></symbol><symbol id="icon-x-mob" viewBox="0 0 32 32"><path fill="none" stroke="#f8f8f8" style="stroke:var(--color1,#f8f8f8)" stroke-linejoin="round" stroke-linecap="round" stroke-width="3" d="M24 8 8 24M8 8l16 16"/></symbol><symbol id="icon-star" viewBox="0 0 24 24"><path d="M10.37 2.446c.513-1.579 2.748-1.579 3.261 0l1.449 4.459a1.715 1.715 0 0 0 1.63 1.185h4.688c1.661 0 2.351 2.125 1.008 3.101l-3.793 2.756a1.715 1.715 0 0 0-.623 1.917l1.449 4.459c.513 1.579-1.294 2.893-2.638 1.917l-3.793-2.756a1.716 1.716 0 0 0-2.015 0L7.2 22.24c-1.344.976-3.151-.337-2.638-1.917l1.449-4.459a1.716 1.716 0 0 0-.623-1.917l-3.793-2.755C.251 10.216.942 8.091 2.603 8.091h4.688c.743 0 1.401-.478 1.63-1.185l1.449-4.459z"/></symbol><symbol id="icon-stars" viewBox="0 0 152 32"><path fill="#eea10c" style="fill:var(--color1,#eea10c)" d="M13.556 5.772c.504-1.552 2.699-1.552 3.204 0l1.423 4.38a1.685 1.685 0 0 0 1.602 1.164h4.606c1.631 0 2.31 2.088.99 3.047l-3.726 2.707a1.685 1.685 0 0 0-.612 1.883l1.423 4.38c.504 1.552-1.272 2.842-2.592 1.883l-3.726-2.707a1.684 1.684 0 0 0-1.98 0l-3.726 2.707c-1.32.959-3.096-.331-2.592-1.883l1.423-4.38a1.685 1.685 0 0 0-.612-1.883l-3.726-2.707c-1.32-.959-.642-3.047.99-3.047h4.606c.73 0 1.376-.47 1.602-1.164l1.423-4.38zM43.872 5.772c.504-1.552 2.699-1.552 3.204 0l1.423 4.38a1.685 1.685 0 0 0 1.602 1.164h4.606c1.632 0 2.31 2.088.99 3.047l-3.726 2.707a1.685 1.685 0 0 0-.612 1.883l1.423 4.38c.504 1.552-1.272 2.842-2.592 1.883l-3.726-2.707a1.684 1.684 0 0 0-1.98 0l-3.726 2.707c-1.32.959-3.096-.331-2.592-1.883l1.423-4.38a1.682 1.682 0 0 0-.612-1.883l-3.726-2.707c-1.32-.959-.642-3.047.99-3.047h4.606c.73 0 1.376-.47 1.602-1.164l1.423-4.38zM74.188 5.772c.504-1.552 2.699-1.552 3.204 0l1.423 4.38a1.685 1.685 0 0 0 1.602 1.164h4.606c1.632 0 2.31 2.088.99 3.047l-3.726 2.707a1.685 1.685 0 0 0-.612 1.883l1.423 4.38c.504 1.552-1.272 2.842-2.592 1.883l-3.726-2.707a1.684 1.684 0 0 0-1.98 0l-3.726 2.707c-1.32.959-3.096-.331-2.592-1.883l1.423-4.38a1.682 1.682 0 0 0-.612-1.883l-3.726-2.707c-1.32-.959-.642-3.047.99-3.047h4.606c.73 0 1.376-.47 1.602-1.164l1.423-4.38zM104.503 5.772c.504-1.552 2.699-1.552 3.204 0l1.423 4.38a1.685 1.685 0 0 0 1.602 1.164h4.606c1.632 0 2.31 2.088.99 3.047l-3.726 2.707a1.685 1.685 0 0 0-.612 1.883l1.423 4.38c.504 1.552-1.272 2.842-2.592 1.883l-3.726-2.707a1.684 1.684 0 0 0-1.98 0l-3.726 2.707c-1.32.959-3.096-.331-2.592-1.883l1.423-4.38a1.682 1.682 0 0 0-.612-1.883l-3.726-2.707c-1.32-.959-.642-3.047.99-3.047h4.606c.73 0 1.376-.47 1.602-1.164l1.423-4.38z"/><path fill="#f8f8f8" style="fill:var(--color2,#f8f8f8)" opacity=".1" d="M134.819 5.772c.504-1.552 2.699-1.552 3.204 0l1.423 4.38a1.685 1.685 0 0 0 1.602 1.164h4.606c1.631 0 2.31 2.088.99 3.047l-3.726 2.707a1.685 1.685 0 0 0-.612 1.883l1.423 4.38c.504 1.552-1.272 2.842-2.592 1.883l-3.726-2.707a1.684 1.684 0 0 0-1.98 0l-3.726 2.707c-1.32.959-3.096-.331-2.592-1.883l1.423-4.38a1.682 1.682 0 0 0-.612-1.883l-3.726-2.707c-1.32-.959-.642-3.047.99-3.047h4.606c.73 0 1.376-.47 1.602-1.164l1.423-4.38z"/></symbol><symbol id="icon-left-one_1" viewBox="0 0 31 32"><path d="M14.963 11.899c-4.237 4.372-4.237 4.732 0 9.104 1.758 1.848 3.47 3.335 3.741 3.335.316 0 .811-.316 1.127-.676.451-.541.045-1.172-2.434-3.741-1.623-1.713-2.975-3.38-2.975-3.741s1.217-1.848 2.704-3.335c1.487-1.487 2.704-3.02 2.704-3.47 0-1.623-1.713-.766-4.868 2.524z"/></symbol><symbol id="icon-left-two" viewBox="0 0 37 32"><path d="M12.652 10.782c-2.462 2.511-3.791 4.283-3.791 4.972 0 .738 1.378 2.511 3.938 5.12 3.742 3.791 3.938 3.938 4.775 3.102.837-.788.689-.985-2.462-4.185-1.822-1.822-3.298-3.643-3.298-4.037s1.477-2.215 3.298-4.037c2.806-2.806 3.2-3.397 2.609-4.037-.345-.443-.788-.788-.935-.788-.197 0-2.068 1.723-4.135 3.889z"/><path d="M21.268 10.535c-4.775 4.923-4.775 5.563.098 10.535 2.56 2.609 3.84 3.594 4.431 3.397 1.477-.591.788-2.018-2.511-5.366l-3.298-3.348 3.348-3.397c2.215-2.265 3.298-3.692 3.151-4.283-.345-1.822-1.723-1.182-5.218 2.462z"/><symbol id="icon-right-one" viewBox="0 0 31 32"><path d="M11.268 8.338c-.451.541-.045 1.172 2.434 3.741 1.623 1.713 2.975 3.38 2.975 3.741s-1.217 1.848-2.704 3.335c-1.487 1.487-2.704 3.02-2.704 3.47 0 1.623 1.713.766 4.868-2.524 4.237-4.372 4.237-4.732 0-9.104-1.758-1.848-3.47-3.335-3.741-3.335-.316 0-.811.316-1.127.676z"/></symbol></symbol><symbol id="icon-right-two" viewBox="0 0 37 32"><path d="M10.683 7.729c-.837.788-.098 2.068 2.954 5.169l3.298 3.348-3.298 3.348c-3.298 3.348-3.988 4.775-2.511 5.366.591.197 1.871-.788 4.431-3.397 4.874-4.972 4.874-5.612.098-10.535-3.348-3.446-4.234-4.037-4.972-3.298z"/><path d="M19.2 8.172c-.591.64-.197 1.231 2.609 4.037 1.822 1.822 3.298 3.643 3.298 4.037s-1.477 2.215-3.298 4.037c-3.151 3.2-3.298 3.397-2.462 4.185.837.837 1.034.689 4.775-3.102 2.56-2.609 3.938-4.382 3.938-5.12 0-.689-1.329-2.462-3.791-4.972-2.068-2.166-3.938-3.889-4.135-3.889-.148 0-.591.345-.935.788z"/></symbol><symbol id="icon-heart" viewBox="0 0 32 32"><path fill="none" opacity=".5" stroke="#f8f8f8" style="stroke:var(--color3,#f8f8f8)" stroke-linejoin="round" stroke-linecap="round" stroke-width="2.909" d="M15.991 6.848C13.325 3.731 8.88 2.893 5.54 5.747s-3.81 7.625-1.187 11c2.181 2.806 8.781 8.725 10.944 10.641.242.214.363.321.504.364a.668.668 0 0 0 .381 0c.141-.042.262-.149.504-.364 2.163-1.916 8.763-7.834 10.944-10.641 2.623-3.375 2.21-8.177-1.187-11.001s-7.786-2.015-10.451 1.101z"/></symbol><symbol id="icon-left-two" viewBox="0 0 37 32"><path d="M12.652 10.782c-2.462 2.511-3.791 4.283-3.791 4.972 0 .738 1.378 2.511 3.938 5.12 3.742 3.791 3.938 3.938 4.775 3.102.837-.788.689-.985-2.462-4.185-1.822-1.822-3.298-3.643-3.298-4.037s1.477-2.215 3.298-4.037c2.806-2.806 3.2-3.397 2.609-4.037-.345-.443-.788-.788-.935-.788-.197 0-2.068 1.723-4.135 3.889z"/><path d="M21.268 10.535c-4.775 4.923-4.775 5.563.098 10.535 2.56 2.609 3.84 3.594 4.431 3.397 1.477-.591.788-2.018-2.511-5.366l-3.298-3.348 3.348-3.397c2.215-2.265 3.298-3.692 3.151-4.283-.345-1.822-1.723-1.182-5.218 2.462z"/></symbol><symbol id="icon-x-1" viewBox="0 0 32 32"><path stroke-linejoin="round" stroke-linecap="round" stroke-width="2.667" d="M24 8 8 24M8 8l16 16"/></symbol><symbol id="icon-hamburger" viewBox="0 0 32 32"><path d="M3.717 7.038c-.456.089-.693.417-.693.962 0 .616.277.924.885.985.182.019 5.755.027 12.384.018 11.943-.016 12.055-.017 12.235-.123.364-.214.528-.637.436-1.126a.866.866 0 0 0-.432-.632l-.004-.002c-.18-.106-.284-.107-12.395-.114-6.717-.004-12.305.01-12.416.032zm0 5.333c-.456.089-.693.418-.693.962 0 .616.277.924.885.986.182.018 5.755.026 12.384.017 11.943-.016 12.055-.017 12.235-.123a.86.86 0 0 0 .435-.628l.001-.005c.092-.49-.072-.912-.436-1.127-.18-.105-.284-.106-12.395-.114-6.717-.004-12.305.01-12.416.032zm0 5.334c-.456.089-.693.417-.693.962 0 .616.277.924.885.985.182.018 5.755.026 12.384.017 11.943-.016 12.055-.017 12.235-.122.364-.215.528-.637.436-1.127a.862.862 0 0 0-.432-.631l-.004-.002c-.18-.106-.284-.107-12.395-.115-6.717-.004-12.305.011-12.416.033zm0 5.333c-.456.089-.693.417-.693.962 0 .616.277.924.885.985.182.019 5.755.027 12.384.018 11.943-.016 12.055-.017 12.235-.123.364-.214.528-.637.436-1.126a.866.866 0 0 0-.432-.632l-.004-.002c-.18-.106-.284-.107-12.395-.114-6.717-.004-12.305.01-12.416.032z"/></symbol><symbol id="icon-elements" viewBox="0 0 37 32"><path fill="#9bb537" style="fill:var(--color1,#9bb537)" d="M7.325 12.723h23.133v17.735H7.325V12.723z"/><path fill="#9bb537" style="fill:var(--color1,#9bb537)" d="M16.578 11.373a8.289 8.289 0 1 1-16.578 0 8.289 8.289 0 1 1 16.578 0z"/><path fill="#9bb537" style="fill:var(--color1,#9bb537)" d="M26.988 8.289a8.289 8.289 0 1 1-16.578 0 8.289 8.289 0 1 1 16.578 0z"/><path fill="#9bb537" style="fill:var(--color1,#9bb537)" d="M37.398 11.373a8.289 8.289 0 1 1-16.578 0 8.289 8.289 0 1 1 16.578 0z"/><path fill="#f8f8f8" style="fill:var(--color3,#f8f8f8)" d="M7.325 29.301h23.133v2.036c0 .366-.324.663-.723.663H8.048c-.399 0-.723-.297-.723-.663v-2.036zM14.265 10.36c0-.611.432-1.107.964-1.107s.964.495.964 1.107v5.112c0 .611-.432 1.107-.964 1.107s-.964-.495-.964-1.107V10.36zM17.349 10.36c0-.611.604-1.107 1.349-1.107s1.349.495 1.349 1.107v5.112c0 .611-.604 1.107-1.349 1.107s-1.349-.495-1.349-1.107V10.36zM21.205 10.36c0-.611.432-1.107.964-1.107s.964.495.964 1.107v5.112c0 .611-.432 1.107-.964 1.107s-.964-.495-.964-1.107V10.36z"/><path fill="#050505" style="fill:var(--color5,#050505)" d="M28.184 3.131c.289-.03.581-.045.878-.045A8.333 8.333 0 0 1 37 8.832c-.289.03-.581.045-.878.045a8.333 8.333 0 0 1-7.938-5.746z"/></symbol><symbol id="icon-x-filters" viewBox="0 0 32 32"><path fill="none" stroke="#9bb537" style="stroke:var(--color1,#9bb537)" stroke-linejoin="round" stroke-linecap="round" stroke-width="3" d="M24 8 8 24M8 8l16 16"/></symbol><symbol id="icon-search-input" viewBox="0 0 32 32"><path d="M28.946 27.054 24 22.147a11.926 11.926 0 0 0 2.642-7.512c0-6.627-5.373-12-12-12s-12 5.373-12 12 5.373 12 12 12c2.85 0 5.468-.994 7.526-2.653l-.023.018 4.907 4.907a1.333 1.333 0 0 0 1.894 0 1.33 1.33 0 0 0-.001-1.853zM14.667 24a9.333 9.333 0 1 1 0-18.666 9.333 9.333 0 1 1 0 18.666z"/></symbol><symbol id="icon-scroll-to-top" viewBox="0 0 32 32"><path d="M0 16c0 8.837 7.163 16 16 16s16-7.163 16-16S24.837 0 16 0 0 7.163 0 16zm29 0c0 7.18-5.82 13-13 13S3 23.18 3 16 8.82 3 16 3s13 5.82 13 13z"/><path d="m22.086 20.914 2.829-2.829-8.914-8.914-8.914 8.914 2.828 2.828 6.086-6.086z"/></symbol></defs></svg>