<svg aria-hidden="true" style="position: absolute; width: 0; height: 0; overflow: hidden;" version="1.1" xmlns="http://www.w3.org/2000/svg" xmlns:xlink="http://www.w3.org/1999/xlink">
<defs>
<symbol id="icon-shopping-cart" viewBox="0 0 32 32">
<path d="M0.72 0.26c-0.397 0.183-0.56 0.493-0.56 1.073 0 0.547 0.152 0.864 0.507 1.059 0.14 0.077 0.467 0.092 2.587 0.115l2.427 0.027 0.579 2.88 1.739 8.672c1.123 5.611 1.167 5.807 1.377 6.24 0.492 1.017 1.386 1.773 2.47 2.070l0.027 0.006c0.4 0.103 0.62 0.105 7.515 0.105s7.115-0.003 7.515-0.105c1.376-0.382 2.43-1.464 2.766-2.828l0.006-0.027c0.067-0.288 1.657-8.601 2.137-11.173 0.14-0.745 0.016-1.124-0.453-1.387l-0.237-0.133-22.133-0.053-0.593-2.945c-0.325-1.62-0.621-3.015-0.657-3.1-0.115-0.232-0.306-0.412-0.541-0.509l-0.007-0.003c-0.171-0.072-0.607-0.083-3.227-0.081-2.824 0.001-3.043 0.008-3.241 0.099zM29.189 9.213c0.036 0.063-1.819 9.719-1.917 9.984-0.12 0.323-0.444 0.659-0.78 0.809l-0.279 0.127h-13.653l-0.279-0.127c-0.351-0.169-0.624-0.451-0.776-0.799l-0.004-0.010c-0.085-0.227-2.008-9.735-2.008-9.929 0-0.091 0.471-0.095 9.837-0.095 5.409 0 9.847 0.019 9.859 0.040zM11.303 25.431c-1.145 0.299-1.979 1.404-1.967 2.607 0.013 1.276 0.984 2.391 2.251 2.585 0.871 0.133 1.659-0.125 2.284-0.752 0.432-0.432 0.664-0.88 0.752-1.457 0.021-0.124 0.032-0.267 0.032-0.413 0-1.467-1.188-2.657-2.655-2.66h-0c-0.191 0-0.504 0.041-0.697 0.091zM25.969 25.431c-1.145 0.299-1.979 1.404-1.967 2.607 0.013 1.276 0.984 2.391 2.251 2.585 0.871 0.133 1.659-0.125 2.284-0.752 0.432-0.432 0.664-0.88 0.752-1.457 0.021-0.124 0.032-0.267 0.032-0.413 0-1.467-1.188-2.657-2.655-2.66h-0c-0.191 0-0.504 0.041-0.697 0.091z"></path>
</symbol>
<symbol id="icon-search-3-1" viewBox="0 0 32 32">
<path d="M28.947 27.054l-4.947-4.907c1.92-2.394 2.85-5.433 2.598-8.492s-1.666-5.905-3.951-7.953c-2.285-2.048-5.269-3.143-8.337-3.059s-5.987 1.34-8.157 3.51c-2.17 2.17-3.426 5.089-3.51 8.157s1.011 6.051 3.059 8.337c2.048 2.285 4.894 3.7 7.953 3.951s6.097-0.678 8.492-2.598l4.907 4.907c0.124 0.125 0.271 0.224 0.434 0.292s0.337 0.102 0.513 0.102 0.35-0.035 0.513-0.102c0.163-0.068 0.31-0.167 0.434-0.292 0.24-0.249 0.375-0.581 0.375-0.927s-0.134-0.678-0.375-0.927zM14.667 24.001c-1.846 0-3.65-0.547-5.185-1.573s-2.731-2.483-3.438-4.189c-0.706-1.705-0.891-3.582-0.531-5.393s1.249-3.474 2.554-4.779c1.305-1.305 2.968-2.194 4.779-2.554s3.687-0.175 5.393 0.531c1.705 0.706 3.163 1.903 4.189 3.438s1.573 3.339 1.573 5.185c0 2.475-0.983 4.849-2.734 6.6s-4.124 2.734-6.6 2.734z"></path>
</symbol>
<symbol id="icon-chevron-down" viewBox="0 0 32 32">
<path stroke-linejoin="round" stroke-linecap="round" stroke-miterlimit="4" stroke-width="3.5556" d="M8 12l8 8 8-8"></path>
</symbol>

<!-- CLOSE ICON -->
<symbol id="icon-x" viewBox="0 0 24 24" fill="none">
    <path stroke-linecap="round" stroke-linejoin="round" stroke-width="2" d="M18 6 6 18M6 6l12 12"/>

</symbol>
<symbol id="icon-x-mob" viewBox="0 0 32 32">
<path fill="none" stroke="#f8f8f8" style="stroke: var(--color1, #f8f8f8)" stroke-linejoin="round" stroke-linecap="round" stroke-miterlimit="4" stroke-width="3" d="M24 8l-16 16"></path>
<path fill="none" stroke="#f8f8f8" style="stroke: var(--color1, #f8f8f8)" stroke-linejoin="round" stroke-linecap="round" stroke-miterlimit="4" stroke-width="3" d="M8 8l16 16"></path>

</symbol>

<!-- STAR ICON  Update-->
<symbol id="icon-star" viewBox="0 0 24 24">
    <path d="M10.37 2.446c.513-1.579 2.748-1.579 3.261 0l1.449 4.459a1.715 1.715 0 0 0 1.63 1.185h4.688c1.661 0 2.351 2.125 1.008 3.101l-3.793 2.756a1.715 1.715 0 0 0-.623 1.917l1.449 4.459c.513 1.579-1.294 2.893-2.638 1.917l-3.793-2.756a1.716 1.716 0 0 0-2.015 0L7.2 22.24c-1.344.976-3.151-.337-2.638-1.917l1.449-4.459a1.716 1.716 0 0 0-.623-1.917l-3.793-2.755C.251 10.216.942 8.091 2.603 8.091h4.688c.743 0 1.401-.478 1.63-1.185l1.449-4.459z"  />
</symbol>
<!-- STAR ICON -->

<symbol id="icon-stars" viewBox="0 0 152 32">
<path fill="#eea10c" style="fill: var(--color1, #eea10c)" d="M13.556 5.772c0.504-1.552 2.699-1.552 3.204 0l1.423 4.38c0.226 0.694 0.872 1.164 1.602 1.164h4.606c1.631 0 2.31 2.088 0.99 3.047l-3.726 2.707c-0.59 0.429-0.837 1.189-0.612 1.883l1.423 4.38c0.504 1.552-1.272 2.842-2.592 1.883l-3.726-2.707c-0.59-0.429-1.39-0.429-1.98 0l-3.726 2.707c-1.32 0.959-3.096-0.331-2.592-1.883l1.423-4.38c0.225-0.694-0.022-1.454-0.612-1.883l-3.726-2.707c-1.32-0.959-0.642-3.047 0.99-3.047h4.606c0.73 0 1.376-0.47 1.602-1.164l1.423-4.38z"></path>
<path fill="#eea10c" style="fill: var(--color1, #eea10c)" d="M43.872 5.772c0.504-1.552 2.699-1.552 3.204 0l1.423 4.38c0.226 0.694 0.872 1.164 1.602 1.164h4.606c1.632 0 2.31 2.088 0.99 3.047l-3.726 2.707c-0.59 0.429-0.837 1.189-0.612 1.883l1.423 4.38c0.504 1.552-1.272 2.842-2.592 1.883l-3.726-2.707c-0.59-0.429-1.39-0.429-1.98 0l-3.726 2.707c-1.32 0.959-3.096-0.331-2.592-1.883l1.423-4.38c0.226-0.694-0.021-1.454-0.612-1.883l-3.726-2.707c-1.32-0.959-0.642-3.047 0.99-3.047h4.606c0.73 0 1.376-0.47 1.602-1.164l1.423-4.38z"></path>
<path fill="#eea10c" style="fill: var(--color1, #eea10c)" d="M74.188 5.772c0.504-1.552 2.699-1.552 3.204 0l1.423 4.38c0.226 0.694 0.872 1.164 1.602 1.164h4.606c1.632 0 2.31 2.088 0.99 3.047l-3.726 2.707c-0.59 0.429-0.837 1.189-0.612 1.883l1.423 4.38c0.504 1.552-1.272 2.842-2.592 1.883l-3.726-2.707c-0.59-0.429-1.39-0.429-1.98 0l-3.726 2.707c-1.32 0.959-3.096-0.331-2.592-1.883l1.423-4.38c0.226-0.694-0.021-1.454-0.612-1.883l-3.726-2.707c-1.32-0.959-0.642-3.047 0.99-3.047h4.606c0.73 0 1.376-0.47 1.602-1.164l1.423-4.38z"></path>
<path fill="#eea10c" style="fill: var(--color1, #eea10c)" d="M104.503 5.772c0.504-1.552 2.699-1.552 3.204 0l1.423 4.38c0.226 0.694 0.872 1.164 1.602 1.164h4.606c1.632 0 2.31 2.088 0.99 3.047l-3.726 2.707c-0.59 0.429-0.837 1.189-0.612 1.883l1.423 4.38c0.504 1.552-1.272 2.842-2.592 1.883l-3.726-2.707c-0.59-0.429-1.39-0.429-1.98 0l-3.726 2.707c-1.32 0.959-3.096-0.331-2.592-1.883l1.423-4.38c0.226-0.694-0.021-1.454-0.612-1.883l-3.726-2.707c-1.32-0.959-0.642-3.047 0.99-3.047h4.606c0.73 0 1.376-0.47 1.602-1.164l1.423-4.38z"></path>
<path fill="#f8f8f8" style="fill: var(--color2, #f8f8f8)" opacity="0.1" d="M134.819 5.772c0.504-1.552 2.699-1.552 3.204 0l1.423 4.38c0.226 0.694 0.872 1.164 1.602 1.164h4.606c1.631 0 2.31 2.088 0.99 3.047l-3.726 2.707c-0.59 0.429-0.837 1.189-0.612 1.883l1.423 4.38c0.504 1.552-1.272 2.842-2.592 1.883l-3.726-2.707c-0.59-0.429-1.39-0.429-1.98 0l-3.726 2.707c-1.32 0.959-3.096-0.331-2.592-1.883l1.423-4.38c0.226-0.694-0.021-1.454-0.612-1.883l-3.726-2.707c-1.32-0.959-0.642-3.047 0.99-3.047h4.606c0.73 0 1.376-0.47 1.602-1.164l1.423-4.38z"></path>
</symbol>
<symbol id="icon-left-one_1" viewBox="0 0 31 32">
<path d="M14.963 11.899c-4.237 4.372-4.237 4.732 0 9.104 1.758 1.848 3.47 3.335 3.741 3.335 0.316 0 0.811-0.316 1.127-0.676 0.451-0.541 0.045-1.172-2.434-3.741-1.623-1.713-2.975-3.38-2.975-3.741s1.217-1.848 2.704-3.335c1.487-1.487 2.704-3.020 2.704-3.47 0-1.623-1.713-0.766-4.868 2.524z"></path>
</symbol>
<symbol id="icon-left-two" viewBox="0 0 37 32">
<path d="M12.652 10.782c-2.462 2.511-3.791 4.283-3.791 4.972 0 0.738 1.378 2.511 3.938 5.12 3.742 3.791 3.938 3.938 4.775 3.102 0.837-0.788 0.689-0.985-2.462-4.185-1.822-1.822-3.298-3.643-3.298-4.037s1.477-2.215 3.298-4.037c2.806-2.806 3.2-3.397 2.609-4.037-0.345-0.443-0.788-0.788-0.935-0.788-0.197 0-2.068 1.723-4.135 3.889z"></path>
<path d="M21.268 10.535c-4.775 4.923-4.775 5.563 0.098 10.535 2.56 2.609 3.84 3.594 4.431 3.397 1.477-0.591 0.788-2.018-2.511-5.366l-3.298-3.348 3.348-3.397c2.215-2.265 3.298-3.692 3.151-4.283-0.345-1.822-1.723-1.182-5.218 2.462z"></path>
<symbol id="icon-right-one" viewBox="0 0 31 32">
<path d="M11.268 8.338c-0.451 0.541-0.045 1.172 2.434 3.741 1.623 1.713 2.975 3.38 2.975 3.741s-1.217 1.848-2.704 3.335c-1.487 1.487-2.704 3.020-2.704 3.47 0 1.623 1.713 0.766 4.868-2.524 4.237-4.372 4.237-4.732 0-9.104-1.758-1.848-3.47-3.335-3.741-3.335-0.316 0-0.811 0.316-1.127 0.676z"></path>
</symbol>
</symbol>
<symbol id="icon-right-two" viewBox="0 0 37 32">
<path d="M10.683 7.729c-0.837 0.788-0.098 2.068 2.954 5.169l3.298 3.348-3.298 3.348c-3.298 3.348-3.988 4.775-2.511 5.366 0.591 0.197 1.871-0.788 4.431-3.397 4.874-4.972 4.874-5.612 0.098-10.535-3.348-3.446-4.234-4.037-4.972-3.298z"></path>
<path d="M19.2 8.172c-0.591 0.64-0.197 1.231 2.609 4.037 1.822 1.822 3.298 3.643 3.298 4.037s-1.477 2.215-3.298 4.037c-3.151 3.2-3.298 3.397-2.462 4.185 0.837 0.837 1.034 0.689 4.775-3.102 2.56-2.609 3.938-4.382 3.938-5.12 0-0.689-1.329-2.462-3.791-4.972-2.068-2.166-3.938-3.889-4.135-3.889-0.148 0-0.591 0.345-0.935 0.788z"></path>
</symbol>
<symbol id="icon-heart" viewBox="0 0 32 32">
<path fill="none" opacity="0.5" stroke="#f8f8f8" style="stroke: var(--color3, #f8f8f8)" stroke-linejoin="round" stroke-linecap="round" stroke-miterlimit="4" stroke-width="2.9091" d="M15.991 6.848c-2.666-3.117-7.111-3.955-10.451-1.101s-3.81 7.625-1.187 11c2.181 2.806 8.781 8.725 10.944 10.641 0.242 0.214 0.363 0.321 0.504 0.364 0.123 0.037 0.258 0.037 0.381 0 0.141-0.042 0.262-0.149 0.504-0.364 2.163-1.916 8.763-7.834 10.944-10.641 2.623-3.375 2.21-8.177-1.187-11.001s-7.786-2.015-10.451 1.101z"></path>
</symbol>
<symbol id="icon-left-two" viewBox="0 0 37 32">
<path d="M12.652 10.782c-2.462 2.511-3.791 4.283-3.791 4.972 0 0.738 1.378 2.511 3.938 5.12 3.742 3.791 3.938 3.938 4.775 3.102 0.837-0.788 0.689-0.985-2.462-4.185-1.822-1.822-3.298-3.643-3.298-4.037s1.477-2.215 3.298-4.037c2.806-2.806 3.2-3.397 2.609-4.037-0.345-0.443-0.788-0.788-0.935-0.788-0.197 0-2.068 1.723-4.135 3.889z"></path>
<path d="M21.268 10.535c-4.775 4.923-4.775 5.563 0.098 10.535 2.56 2.609 3.84 3.594 4.431 3.397 1.477-0.591 0.788-2.018-2.511-5.366l-3.298-3.348 3.348-3.397c2.215-2.265 3.298-3.692 3.151-4.283-0.345-1.822-1.723-1.182-5.218 2.462z"></path>
</symbol>
<symbol id="icon-x-1" viewBox="0 0 32 32">
<path stroke-linejoin="round" stroke-linecap="round" stroke-miterlimit="4" stroke-width="2.6667" d="M24 8l-16 16"></path>
<path stroke-linejoin="round" stroke-linecap="round" stroke-miterlimit="4" stroke-width="2.6667" d="M8 8l16 16"></path>
</symbol>
<symbol id="icon-hamburger" viewBox="0 0 32 32">
<path d="M3.717 7.038c-0.456 0.089-0.693 0.417-0.693 0.962 0 0.616 0.277 0.924 0.885 0.985 0.182 0.019 5.755 0.027 12.384 0.018 11.943-0.016 12.055-0.017 12.235-0.123 0.364-0.214 0.528-0.637 0.436-1.126-0.040-0.274-0.203-0.503-0.432-0.632l-0.004-0.002c-0.18-0.106-0.284-0.107-12.395-0.114-6.717-0.004-12.305 0.010-12.416 0.032zM3.717 12.371c-0.456 0.089-0.693 0.418-0.693 0.962 0 0.616 0.277 0.924 0.885 0.986 0.182 0.018 5.755 0.026 12.384 0.017 11.943-0.016 12.055-0.017 12.235-0.123 0.233-0.13 0.396-0.359 0.435-0.628l0.001-0.005c0.092-0.49-0.072-0.912-0.436-1.127-0.18-0.105-0.284-0.106-12.395-0.114-6.717-0.004-12.305 0.010-12.416 0.032zM3.717 17.705c-0.456 0.089-0.693 0.417-0.693 0.962 0 0.616 0.277 0.924 0.885 0.985 0.182 0.018 5.755 0.026 12.384 0.017 11.943-0.016 12.055-0.017 12.235-0.122 0.364-0.215 0.528-0.637 0.436-1.127-0.040-0.274-0.203-0.503-0.432-0.631l-0.004-0.002c-0.18-0.106-0.284-0.107-12.395-0.115-6.717-0.004-12.305 0.011-12.416 0.033zM3.717 23.038c-0.456 0.089-0.693 0.417-0.693 0.962 0 0.616 0.277 0.924 0.885 0.985 0.182 0.019 5.755 0.027 12.384 0.018 11.943-0.016 12.055-0.017 12.235-0.123 0.364-0.214 0.528-0.637 0.436-1.126-0.040-0.274-0.203-0.503-0.432-0.632l-0.004-0.002c-0.18-0.106-0.284-0.107-12.395-0.114-6.717-0.004-12.305 0.010-12.416 0.032z"></path>
</symbol>
<symbol id="icon-elements" viewBox="0 0 37 32">
<path fill="#9bb537" style="fill: var(--color1, #9bb537)" d="M7.325 12.723h23.133v17.735h-23.133v-17.735z"></path>
<path fill="#9bb537" style="fill: var(--color1, #9bb537)" d="M16.578 11.373c0 4.578-3.711 8.289-8.289 8.289s-8.289-3.711-8.289-8.289c0-4.578 3.711-8.289 8.289-8.289s8.289 3.711 8.289 8.289z"></path>
<path fill="#9bb537" style="fill: var(--color1, #9bb537)" d="M26.988 8.289c0 4.578-3.711 8.289-8.289 8.289s-8.289-3.711-8.289-8.289c0-4.578 3.711-8.289 8.289-8.289s8.289 3.711 8.289 8.289z"></path>
<path fill="#9bb537" style="fill: var(--color1, #9bb537)" d="M37.398 11.373c0 4.578-3.711 8.289-8.289 8.289s-8.289-3.711-8.289-8.289c0-4.578 3.711-8.289 8.289-8.289s8.289 3.711 8.289 8.289z"></path>
<path fill="#f8f8f8" style="fill: var(--color3, #f8f8f8)" d="M7.325 29.301h23.133v2.036c0 0.366-0.324 0.663-0.723 0.663h-21.687c-0.399 0-0.723-0.297-0.723-0.663v-2.036z"></path>
<path fill="#f8f8f8" style="fill: var(--color3, #f8f8f8)" d="M14.265 10.36c0-0.611 0.432-1.107 0.964-1.107s0.964 0.495 0.964 1.107v5.112c0 0.611-0.432 1.107-0.964 1.107s-0.964-0.495-0.964-1.107v-5.112z"></path>
<path fill="#f8f8f8" style="fill: var(--color3, #f8f8f8)" d="M17.349 10.36c0-0.611 0.604-1.107 1.349-1.107s1.349 0.495 1.349 1.107v5.112c0 0.611-0.604 1.107-1.349 1.107s-1.349-0.495-1.349-1.107v-5.112z"></path>
<path fill="#f8f8f8" style="fill: var(--color3, #f8f8f8)" d="M21.205 10.36c0-0.611 0.432-1.107 0.964-1.107s0.964 0.495 0.964 1.107v5.112c0 0.611-0.432 1.107-0.964 1.107s-0.964-0.495-0.964-1.107v-5.112z"></path>
<path fill="#050505" style="fill: var(--color5, #050505)" d="M28.184 3.131c0.289-0.030 0.581-0.045 0.878-0.045 3.714 0 6.861 2.413 7.938 5.746-0.289 0.030-0.581 0.045-0.878 0.045-3.714 0-6.861-2.413-7.938-5.746z"></path>
</symbol>
<symbol id="icon-x-filters" viewBox="0 0 32 32">
<path fill="none" stroke="#9bb537" style="stroke: var(--color1, #9bb537)" stroke-linejoin="round" stroke-linecap="round" stroke-miterlimit="4" stroke-width="3" d="M24 8l-16 16M8 8l16 16"></path>
</symbol>
<symbol id="icon-search-input" viewBox="0 0 32 32">
<path d="M28.946 27.054l-4.946-4.907c1.646-2.037 2.642-4.658 2.642-7.512 0-6.627-5.373-12-12-12s-12 5.373-12 12c0 6.627 5.373 12 12 12 2.85 0 5.468-0.994 7.526-2.653l-0.023 0.018 4.907 4.907c0.242 0.244 0.577 0.394 0.947 0.394s0.705-0.151 0.947-0.394l0-0c0.232-0.24 0.374-0.566 0.374-0.926s-0.143-0.687-0.375-0.927l0 0zM14.667 24c-5.155 0-9.333-4.179-9.333-9.333s4.179-9.333 9.333-9.333v0c5.155 0 9.333 4.179 9.333 9.333s-4.179 9.333-9.333 9.333v0z"></path>
</symbol>
<symbol id="icon-scroll-to-top" viewBox="0 0 32 32">
<path d="M0 16c0 8.837 7.163 16 16 16s16-7.163 16-16-7.163-16-16-16-16 7.163-16 16zM29 16c0 7.18-5.82 13-13 13s-13-5.82-13-13 5.82-13 13-13 13 5.82 13 13z"></path>
<path d="M22.086 20.914l2.829-2.829-8.914-8.914-8.914 8.914 2.828 2.828 6.086-6.086z"></path>
</symbol>
</defs>
</svg>